<?xml version="1.0" standalone="no"?>
<!DOCTYPE svg PUBLIC "-//W3C//DTD SVG 20010904//EN"
 "http://www.w3.org/TR/2001/REC-SVG-20010904/DTD/svg10.dtd">
<svg version="1.0" xmlns="http://www.w3.org/2000/svg"
 width="980.000000pt" height="980.000000pt" viewBox="0 0 980.000000 980.000000"
 preserveAspectRatio="xMidYMid meet">
<metadata>
Created by potrace 1.14, written by Peter Selinger 2001-2017
</metadata>
<g transform="translate(0.000000,980.000000) scale(0.100000,-0.100000)"
fill="#000000" stroke="none">
<path d="M4387 8540 c-82 -21 -127 -60 -127 -111 0 -30 23 -54 44 -46 12 5 15
-13 18 -101 2 -89 0 -111 -14 -131 -23 -30 -22 -36 3 -59 16 -16 22 -39 30
-123 12 -140 28 -234 42 -253 11 -15 14 -15 36 0 l24 17 -8 146 c-4 80 -8 161
-9 179 -1 31 2 34 59 57 81 34 192 111 226 159 34 46 36 84 10 141 -23 50 -53
78 -114 105 -55 24 -163 34 -220 20z m193 -102 c45 -17 70 -48 70 -88 0 -56
-52 -93 -188 -134 l-49 -14 -7 66 c-3 37 -6 91 -6 120 0 45 3 54 23 62 24 10
117 3 157 -12z"/>
<path d="M5307 8480 c-15 -18 -28 -47 -31 -73 -2 -23 -14 -131 -26 -240 -16
-152 -26 -206 -41 -230 -23 -38 -24 -70 -4 -87 8 -7 15 -27 15 -45 0 -35 21
-61 43 -52 15 5 32 58 43 127 8 50 50 123 58 99 2 -8 14 -43 25 -79 35 -110
81 -163 126 -147 32 13 28 40 -17 126 -33 62 -47 102 -51 142 l-5 56 54 54
c56 55 65 78 39 99 -23 19 -67 -5 -142 -73 l-59 -56 7 62 c5 34 11 121 15 192
6 110 4 132 -8 143 -13 11 -20 8 -41 -18z"/>
<path d="M5830 8477 c-69 -17 -107 -75 -77 -120 13 -20 13 -36 1 -124 -7 -57
-29 -180 -48 -276 -39 -187 -43 -226 -24 -245 39 -39 64 3 98 168 12 58 23
111 26 118 3 9 18 2 50 -24 51 -42 66 -67 83 -139 7 -27 19 -60 27 -72 15 -24
58 -31 69 -12 5 7 15 3 29 -10 27 -26 83 -43 111 -35 58 18 128 102 195 233
27 54 31 73 27 110 -7 61 -41 91 -103 91 -106 0 -217 -104 -258 -242 l-11 -38
-46 82 -46 83 46 23 c86 44 146 121 157 205 10 71 -3 114 -48 163 -62 67 -148
87 -258 61z m194 -112 c22 -20 26 -33 26 -76 0 -103 -77 -179 -181 -179 l-44
0 19 140 20 140 67 0 c56 0 70 -4 93 -25z m233 -395 c-6 -91 -29 -148 -69
-170 -55 -30 -84 28 -58 114 11 38 99 136 122 136 7 0 9 -26 5 -80z"/>
<path d="M4964 8328 c-16 -25 3 -348 27 -458 16 -77 29 -100 55 -100 39 0 43
25 25 158 l-17 124 68 61 c56 49 68 66 66 86 -4 36 -38 38 -92 8 l-44 -25 -7
47 c-10 69 -31 111 -54 111 -11 0 -23 -5 -27 -12z"/>
<path d="M3836 8230 c-15 -36 -8 -104 25 -249 38 -170 82 -241 148 -241 19 0
43 8 54 18 19 17 19 16 15 -57 -3 -62 -7 -76 -27 -92 -35 -29 -106 -25 -152 7
-31 21 -41 24 -58 14 -29 -15 -26 -51 7 -82 42 -39 66 -48 129 -48 76 0 128
29 161 90 l24 45 -7 240 c-4 132 -13 255 -19 274 -16 48 -39 60 -67 36 -20
-19 -21 -26 -15 -135 7 -126 -2 -182 -33 -213 -40 -41 -53 -7 -91 243 -11 74
-25 145 -30 158 -14 33 -48 29 -64 -8z"/>
<path d="M3503 8178 c-11 -13 -23 -28 -26 -34 -14 -24 69 -418 99 -476 33 -63
50 -25 69 149 17 154 34 243 47 243 4 0 8 -4 8 -10 0 -31 34 -234 46 -280 24
-86 61 -112 98 -71 16 18 16 26 -9 147 -45 218 -97 334 -150 334 -29 0 -70
-45 -94 -105 -22 -55 -21 -57 -27 53 -2 39 -17 72 -33 72 -4 0 -17 -10 -28
-22z"/>
<path d="M2892 8168 c-21 -21 -8 -80 22 -100 21 -14 55 -8 66 11 15 30 12 46
-15 75 -26 28 -54 33 -73 14z"/>
<path d="M6471 8172 c-29 -9 -46 -34 -38 -55 7 -18 88 -37 163 -37 31 0 54 -4
52 -8 -1 -4 -54 -54 -117 -112 -176 -160 -223 -229 -186 -270 42 -47 315 -3
315 50 0 42 -40 49 -150 25 l-65 -13 70 61 c115 100 200 190 219 232 17 34 17
42 5 65 -22 39 -79 61 -167 66 -42 2 -88 0 -101 -4z"/>
<path d="M4636 8145 c-59 -21 -88 -46 -118 -105 -53 -99 -31 -213 47 -246 64
-26 127 -14 178 34 23 21 27 23 27 8 0 -10 13 -31 29 -47 23 -23 38 -29 71
-29 33 0 48 6 71 29 61 61 14 138 -48 79 -43 -40 -54 -3 -38 127 6 42 3 56
-17 85 -25 38 -98 80 -138 80 -14 -1 -43 -7 -64 -15z m102 -98 c7 -35 -8 -84
-39 -131 -30 -44 -34 -47 -72 -44 -23 2 -44 10 -50 19 -15 23 -1 79 33 133 30
46 31 47 78 44 36 -2 48 -7 50 -21z"/>
<path d="M2337 8143 c-17 -17 -4 -82 33 -160 22 -47 40 -89 40 -92 0 -3 -20
-6 -45 -6 -28 0 -54 -8 -72 -21 -35 -25 -73 -98 -73 -140 l0 -31 -67 34 c-37
19 -79 43 -95 55 -99 70 -168 29 -183 -108 -8 -73 14 -188 49 -250 13 -24 21
-46 18 -48 -4 -2 -38 8 -77 23 -38 16 -78 31 -88 34 -17 6 -16 11 12 50 55 75
61 147 20 229 -45 90 -177 122 -295 73 -33 -14 -37 -13 -64 7 -25 18 -32 19
-45 8 -12 -10 -15 -23 -10 -44 7 -39 7 -53 -1 -94 -9 -45 10 -66 55 -58 38 6
32 11 107 -97 l48 -68 -22 -15 c-44 -31 -21 -74 39 -74 38 0 38 0 96 -107 83
-155 145 -217 181 -181 21 21 14 41 -57 164 -38 65 -67 120 -66 122 2 2 11 -1
22 -7 25 -14 221 -101 227 -101 3 0 17 11 31 24 21 19 33 23 68 19 74 -9 149
48 163 123 6 32 8 34 23 20 26 -23 87 -46 123 -46 42 0 94 32 116 69 16 28 19
29 65 24 43 -5 49 -4 54 15 4 18 8 20 25 11 12 -6 35 -9 52 -6 44 7 246 105
253 123 4 10 10 5 22 -18 20 -40 55 -49 71 -18 17 31 5 102 -46 269 -46 153
-62 183 -92 165 -28 -18 -26 -78 7 -187 16 -56 33 -122 37 -147 6 -40 5 -43
-10 -31 -20 17 -62 9 -146 -29 -35 -15 -68 -26 -72 -24 -4 3 4 30 18 62 41 90
102 253 109 292 10 56 -19 85 -82 84 -85 -3 -224 -70 -239 -116 -7 -23 12 -48
38 -48 11 0 53 16 95 35 42 19 79 35 84 35 4 0 -14 -53 -41 -117 -45 -111 -72
-191 -85 -257 l-6 -29 -26 38 c-14 20 -48 103 -75 184 -88 258 -183 423 -221
384z m107 -365 c19 -30 56 -142 57 -171 0 -35 -17 -105 -31 -122 -14 -17 -62
-20 -91 -5 -37 20 -62 89 -67 183 -6 118 4 137 69 137 39 0 51 -4 63 -22z
m-756 -64 c26 -18 62 -84 62 -114 0 -26 -22 -70 -47 -92 -19 -17 -22 -14 -92
88 -39 59 -71 107 -69 109 36 28 112 33 146 9z m329 -23 c16 -22 45 -67 65
-100 21 -34 44 -64 53 -67 22 -9 45 14 46 45 0 24 1 24 14 -9 20 -53 18 -120
-5 -157 -17 -29 -25 -33 -61 -33 -37 0 -48 6 -89 48 -56 55 -80 121 -80 218 0
104 14 117 57 55z"/>
<path d="M3120 8134 c-24 -28 137 -513 175 -528 7 -2 21 1 31 8 17 13 17 19
-5 130 -22 111 -23 175 -4 240 8 29 17 7 53 -123 43 -157 68 -201 115 -201 48
0 49 30 6 159 -67 201 -122 291 -179 291 -31 0 -72 -36 -72 -63 0 -9 -4 -17
-10 -17 -5 0 -10 13 -10 29 0 34 -43 91 -70 91 -10 0 -23 -7 -30 -16z"/>
<path d="M6813 8095 c-23 -16 -35 -48 -53 -140 -7 -33 -18 -71 -25 -85 -17
-34 -65 -231 -65 -267 0 -30 15 -53 36 -53 14 0 40 60 83 190 l31 95 91 59
c99 65 102 68 93 90 -8 21 -60 21 -108 1 -20 -8 -36 -14 -36 -13 0 2 7 25 15
51 23 75 -8 110 -62 72z"/>
<path d="M7087 8051 c-75 -90 -147 -291 -147 -411 0 -47 4 -60 24 -79 20 -19
33 -22 75 -20 28 2 51 0 51 -4 0 -5 -11 -32 -25 -62 -30 -63 -87 -118 -118
-113 -20 3 -22 9 -22 62 0 69 -16 88 -59 68 -44 -20 -48 -122 -5 -176 48 -61
137 -52 204 21 95 103 246 514 211 572 -11 17 -41 13 -59 -7 -9 -10 -37 -64
-61 -121 -25 -57 -55 -114 -67 -127 -24 -26 -69 -33 -69 -11 0 22 30 116 81
255 33 90 47 141 43 157 -8 33 -27 31 -57 -4z"/>
<path d="M7987 8002 c-10 -11 -38 -78 -63 -151 -25 -73 -59 -155 -75 -183 -17
-28 -44 -78 -61 -112 -17 -33 -48 -80 -70 -104 -32 -35 -37 -46 -28 -61 7 -13
7 -28 0 -45 -14 -37 3 -76 33 -76 27 0 52 30 96 118 46 91 66 83 35 -14 -35
-110 -42 -189 -19 -214 22 -24 38 -25 70 -4 26 17 33 48 14 60 -12 7 -11 13
32 176 l32 116 60 17 c78 22 107 41 107 71 0 52 -75 52 -196 -1 l-50 -22 43
110 c81 203 109 295 97 314 -16 25 -37 27 -57 5z"/>
<path d="M7425 7909 c-95 -88 -184 -271 -185 -379 0 -66 16 -94 66 -110 49
-16 101 -6 135 26 l27 26 -8 -35 c-17 -77 50 -119 126 -80 64 32 133 170 151
300 11 81 -22 128 -74 104 -23 -11 -24 -15 -18 -66 7 -49 4 -62 -30 -135 -21
-44 -42 -80 -46 -80 -5 0 -6 6 -4 13 19 54 65 236 65 258 0 14 -7 32 -15 39
-28 24 -54 1 -96 -87 -22 -48 -53 -105 -69 -128 -28 -41 -80 -75 -115 -75 -47
0 22 181 128 340 30 45 53 89 50 96 -9 25 -43 15 -88 -27z"/>
<path d="M8368 7794 c-15 -33 -1 -58 35 -62 34 -4 55 34 38 67 -17 30 -58 28
-73 -5z"/>
<path d="M8235 7569 c-66 -53 -292 -400 -280 -432 9 -22 35 -30 52 -15 17 14
157 208 237 329 38 58 57 95 54 110 -4 32 -28 35 -63 8z"/>
<path d="M4595 7304 c-638 -39 -1074 -116 -1560 -279 -343 -114 -632 -250
-980 -460 -341 -206 -534 -352 -745 -564 -331 -332 -517 -683 -576 -1085 -22
-150 -15 -457 15 -598 121 -589 536 -1096 1248 -1526 221 -134 611 -318 833
-394 17 -6 16 23 8 -678 -2 -197 9 -286 37 -310 16 -13 43 -3 50 19 4 14 16
17 68 15 144 -3 134 -1 141 -36 11 -57 42 -98 74 -98 16 0 183 22 373 49 253
36 389 50 514 55 94 3 238 11 320 18 83 6 218 10 300 8 350 -8 1192 11 1290
30 59 12 133 16 625 39 135 6 313 18 395 26 83 9 200 15 262 15 106 0 113 1
124 22 14 26 22 95 49 421 11 131 34 325 51 430 l32 193 95 49 c480 249 881
573 1141 919 358 477 459 1060 281 1621 -154 486 -560 937 -1185 1318 -305
185 -767 397 -1110 510 -388 128 -790 208 -1270 253 -150 14 -766 26 -900 18z
m333 -1449 c-3 -3 -9 2 -12 12 -6 14 -5 15 5 6 7 -7 10 -15 7 -18z m6 -51 c5
-14 4 -15 -9 -4 -17 14 -19 20 -6 20 5 0 12 -7 15 -16z m45 -23 c10 -7 7 -9
-12 -8 -14 1 -23 5 -20 10 6 9 15 9 32 -2z m-9 -62 c0 -5 -5 -9 -12 -9 -6 0
-8 3 -5 7 4 3 1 13 -6 22 -11 14 -10 14 6 2 9 -7 17 -17 17 -22z m-350 -284
c0 -2 -6 -5 -13 -8 -8 -3 -14 1 -14 8 0 7 6 11 14 8 7 -3 13 -6 13 -8z m30
-71 c0 -8 -19 -13 -24 -6 -3 5 1 9 9 9 8 0 15 -2 15 -3z m155 -54 c-3 -5 -12
-10 -18 -10 -7 0 -6 4 3 10 19 12 23 12 15 0z m-115 -36 c0 -2 -9 0 -20 6 -11
6 -20 13 -20 16 0 2 9 0 20 -6 11 -6 20 -13 20 -16z m86 4 c3 -4 -1 -5 -10 -4
-8 1 -18 5 -22 8 -3 4 1 5 10 4 8 -1 18 -5 22 -8z m18 -84 c3 -8 2 -12 -4 -9
-6 3 -10 10 -10 16 0 14 7 11 14 -7z m29 -9 c-3 -9 -8 -14 -10 -11 -3 3 -2 9
2 15 9 16 15 13 8 -4z"/>
</g>
</svg>
